# xmcd
#
# Track frame offsets: 
#        150
#        26343
#        57545
#        82813
#        107426
#        132551
#        161511
#        188325
#        212543
#        245177
#        275251
#        302189
#
# Disc length: 4212 seconds
#
# Revision: 1
# Processed by: cddbd v1.5.2PL0 Copyright (c) Steve Scherf et al.
# Submitted via: ExactAudioCopy v0.95b4
#
DISCID=9b10720c
DTITLE=Various Artist - Lickable Beats 2
DYEAR=2005
DGENRE=Drum and Bass
TTITLE0=E-Z Rollers - Stray Dogs
TTITLE1=Entity - Portugal
TTITLE2=E-Z Rollers - Bellagio
TTITLE3=E-Z Rollers - Skaface
TTITLE4=Tommy Knocker - Brothers
TTITLE5=E-Z Rollers - So Good Tonight
TTITLE6=Tommy Knocker - Liquidator
TTITLE7=E-Z Rollers and Tommy Knocker - Underdog
TTITLE8=E-Z Rollers - Showtime featuring Heidi Levo and Gustavo Marques 
TTITLE8=(E-Z Rollers Remix)
TTITLE9=Flytronix - The Sermon
TTITLE10=E-Z Rollers - Deathsport
TTITLE11=Ringleader - 1000 Tears (E-Z Rollers Remix)
EXTD=
EXTT0=
EXTT1=
EXTT2=
EXTT3=
EXTT4=
EXTT5=
EXTT6=
EXTT7=
EXTT8=
EXTT9=
EXTT10=
EXTT11=
PLAYORDER=
